<?xml version="1.0" encoding="UTF-8"?>
<svg id="Capa_1" data-name="Capa 1" xmlns="http://www.w3.org/2000/svg" viewBox="0 0 400 400">
  <defs>
    <style>
      .cls-1 {
        fill: #3d3205;
      }

      .cls-1, .cls-2 {
        stroke-width: 0px;
      }

      .cls-2 {
        fill: #fdae4b;
      }
    </style>
  </defs>
  <rect class="cls-2" width="400" height="400" rx="50" ry="50"/>
  <g>
    <path class="cls-1" d="M212.88,148.49c-16.6.14-33.21.06-49.81.07-1.89,0-3.81.23-3.11-2.73,2.09-8.93,2.9-18.18,6.28-26.8,4.08-10.4,10.93-17.86,22.3-20.17,13.61-2.77,26.54,0,39.02,5.35,2.61,1.12,3.35.92,4.13-1.83,4.09-14.31,8.33-28.57,12.66-42.8.72-2.36.37-3.46-2.02-4.34-7.2-2.66-14.6-4.43-22.11-5.91-4.51-.89-9.2-.61-13.57-2.26h-24.91c-4.09,1.62-8.51,1.55-12.75,2.47-26.69,5.83-43.93,22.43-54.23,47.11-6.04,14.47-8.27,29.89-11.55,45.04-1.48,6.84-1.39,6.86-8.5,6.86-7.65,0-15.31.11-22.96-.06-2.58-.06-3.56.75-4.07,3.28-2.62,13.07-5.43,26.1-8.17,39.14-.13.62-.09,1.31-.77,1.67v2.33c9.59-.07,19.18-.15,28.77-.21,4.74-.03,4.69,0,3.75,4.52-10.38,49.92-20.69,99.86-31.22,149.75-.8,3.79.4,3.93,3.45,3.91,17.12-.11,34.25-.17,51.37.04,3.55.04,4.77-.95,5.48-4.43,10.27-50.08,20.73-100.11,31.07-150.18.57-2.74,1.58-3.73,4.54-3.69,15.95.17,31.91,0,47.87.16,2.81.03,3.8-.87,4.32-3.48,2.58-12.95,5.15-25.9,8.1-38.77.82-3.59-.09-4.07-3.35-4.05Z"/>
    <path class="cls-1" d="M310.13,180.57c-7.4-5.01-14.57-10.37-22.03-15.3-2.61-1.73-2.94-3.31-1.73-5.98,1.59-3.51,2.82-7.17,4.36-11.17-6.56.29-12.65.56-18.72.84-3.36.15-7.35-.73-9.9.79-2.83,1.69-2.4,6.24-3.4,9.53-1.9,6.23-1.59,6.89,3.76,10.59,5.49,3.81,10.96,7.65,17.42,12.15-6.56.46-11.92.92-17.28,1.19-9.6.48-9.61.43-11.55,9.79-1.23,5.91-.98,6.47,4.05,9.95,5.58,3.87,11.14,7.78,17.51,12.24-7.91.55-14.74,1.18-21.58,1.45-3.76.15-5.79,1.73-6.29,5.43-.17,1.28-.54,2.53-.81,3.8-1.35,6.27-1.17,6.7,4,10.31,5.56,3.89,11.12,7.78,17.4,12.18-8.08.59-15.14,1.13-22.21,1.62-1.59.11-3.39.14-4.17,1.62-2.01,3.83-2.78,8.06-2.86,12.33-.05,3.07,2.8,4.12,4.87,5.59,5.39,3.82,10.8,7.6,17.15,12.06-6.55.47-11.81.95-17.09,1.21-9.81.49-9.59.49-11.83,9.97-1.09,4.58.23,7.28,4.04,9.71,5.73,3.66,11.19,7.75,17.62,12.26-8.11.58-15.16,1.19-22.22,1.54-2.91.14-4.67,1.38-5.36,4.1-2.55,10.03-4.97,20.1-7.6,30.11-.55,2.1.08,2.41,1.93,2.39,7.26-.06,14.53-.11,21.79.02,2.1.04,2.63-.99,2.99-2.68.87-4.05,1.93-8.06,2.71-12.12.42-2.21,1.29-3.16,3.72-3.34,9.82-.74,19.62-1.75,29.43-2.64,1.46-.13,3.1-.27,3.74-1.65,1.9-4.11,3.14-8.44,2.72-13.04-.13-1.49-1.25-2.46-2.5-3.29-2.7-1.79-5.33-3.68-7.98-5.54-3.5-2.46-7-4.94-10.5-7.42,7.12-1.21,13.95-1.65,20.78-2.06,2.29-.14,4.64-.42,5.39-2.95.99-3.34,1.71-6.77,2.31-10.21.34-1.93-.69-3.5-2.3-4.63-1.59-1.12-3.19-2.23-4.77-3.35-4.79-3.38-9.57-6.76-15.01-10.6,7.94-.57,14.91-1.12,21.89-1.55,1.88-.12,3.61-.31,4.78-2.01,4.32-6.24,2.87-13.99-3.37-18.31-5.16-3.57-10.26-7.2-16.23-11.39,7.51-.47,13.93-.8,20.34-1.29,6.16-.47,6.68-1,7.93-6.89.16-.76.34-1.51.51-2.27,1.4-6.22,1.08-6.96-4.21-10.61-5.47-3.78-10.91-7.62-17.24-12.04,6.29-.47,11.44-1.09,16.6-1.21,11.64-.25,10.05-1.18,12.38-10.7.97-3.96-.19-6.34-3.39-8.51Z"/>
    <path class="cls-1" d="M319.17,49.66c-4.85-.98-9.74-.84-14.69-.41-20.6,1.76-32.63,12.4-36.02,32.68-1.82,10.91-.85,21.31,8.67,28.92,6.29,5.03,13.76,6.26,21.56,6.16,1.17,0,2.34.08,3.5-.01,24.31-1.97,33.94-10.47,37.99-29.93.42-2.02.69-4.08.91-6.14,1.63-14.85-7.84-28.43-21.91-31.27Z"/>
  </g>
</svg>