<?xml version="1.0" encoding="utf-8"?>
<!-- Generator: Adobe Illustrator 28.2.0, SVG Export Plug-In . SVG Version: 6.00 Build 0)  -->
<svg version="1.1" id="Capa_1" xmlns="http://www.w3.org/2000/svg" xmlns:xlink="http://www.w3.org/1999/xlink" x="0px" y="0px"
	 viewBox="0 0 2000 400" style="enable-background:new 0 0 2000 400;" xml:space="preserve">
<style type="text/css">
	.st0{fill:#F59E0B;}
</style>
<path class="st0" d="M541.07,399.9c-3.54-2.04-7.6-1.52-11.39-2.36c-28.04-6.21-47.89-28.46-50.38-57.89
	c-1.94-22.86,2.57-44.44,16.66-63.21c11.36-15.13,27.24-23.55,44.78-29.34c18.12-5.98,37.03-8,55.73-11.06
	c17.73-2.91,35.48-5.68,53.25-8.38c3.15-0.48,4.35-1.77,4.59-5.07c1.13-15.08-5.59-25.33-20.81-30.65
	c-16.2-5.66-32.8-4.79-49.39-2.41c-22.36,3.2-43.68,10.13-64.5,18.7c-0.9,0.37-1.83,0.66-3.48,1.26c1.49-8.66,2.86-16.77,4.27-24.87
	c2.23-12.77,4.59-25.53,6.69-38.32c0.62-3.8,2.03-5.93,6.1-7.09c32.14-9.12,64.61-16.18,98.22-15.81
	c22.36,0.25,44.19,3.53,63.67,15.66c22.19,13.82,32.58,34.21,33.3,60.07c0.49,17.73-4.2,34.64-7.69,51.7
	c-9.3,45.43-19.09,90.77-28.5,136.18c-0.93,4.5-2.46,6.07-7.33,5.98c-18.82-0.36-37.66-0.23-56.49-0.07
	c-3.62,0.03-4.43-0.91-3.95-4.53c1.16-8.57,1.87-17.2,2.56-25.83c0.12-1.52,1.48-3.93-1.22-4.57c-2.27-0.54-4.33-0.23-5.99,2.21
	c-4.61,6.75-10.09,12.8-16.31,18.15c-14.36,12.35-30.99,19.16-49.87,20.55c-0.92,0.07-2.06-0.29-2.51,1.01
	C547.73,399.9,544.4,399.9,541.07,399.9z M643.98,262.52c-11.68,7.87-24.1,10.43-36.37,13.38c-11.31,2.71-22.79,4.83-33.44,9.77
	c-18.02,8.37-20.84,29.89-15.13,40.52c5.28,9.82,17.77,14.39,31.54,11.41c19.42-4.2,32.84-16.74,43.99-32.27
	c0.56-0.78,0.83-1.82,1.03-2.78C638.34,289.57,641.05,276.58,643.98,262.52z"/>
<path class="st0" d="M1325.98,399.9c-5.76-2.24-11.95-1.86-17.91-2.96c-31.44-5.84-58.39-19.13-76.88-46.3
	c-15.38-22.59-19.94-48.02-17.99-74.73c2.32-31.77,10.56-61.95,27.66-89.12c28.8-45.78,70.64-66.2,124.42-63.06
	c16.42,0.96,32.46,3.56,47.41,10.59c32.45,15.25,47.16,41.71,47.11,76.82c-0.03,20.86-6.01,40.66-12.21,60.37
	c-1.07,3.41-3.39,3.04-5.88,3.04c-24.82,0-49.64,0-74.46,0s-49.64,0.1-74.46-0.1c-4.04-0.03-4.92,1.23-4.9,5.05
	c0.16,26.66,16.01,45.89,43.79,52.44c25.35,5.97,50.27,2.64,74.94-4.14c9.14-2.51,17.91-6.06,27.03-11.1
	c-1.73,11.43-3.32,22.14-4.97,32.84c-1.54,10.02-3.27,20.01-4.64,30.06c-0.39,2.82-1.48,4.38-4.04,5.59
	c-15.39,7.3-31.85,10.32-48.51,12.77c-4.5,0.66-9.2,0.07-13.52,1.94c-2,0-4,0-6,0c-7.67-1.63-15.33-1.63-23,0
	C1327.98,399.9,1326.98,399.9,1325.98,399.9z M1377.39,229.81c14.49-0.13,14.93-0.24,13.43-14.85c-2.68-26.07-17.8-40.54-45.58-34.9
	c-20.59,4.18-43.85,28.28-47.37,48.46c-0.56,3.2,1.37,2.72,3.13,2.72C1315.16,231.26,1366.08,229.91,1377.39,229.81z"/>
<path class="st0" d="M190.11,0.1c5.61,2.11,11.64,1.76,17.43,2.9c9.65,1.9,19.16,4.17,28.4,7.59c3.08,1.14,3.52,2.54,2.6,5.58
	c-5.56,18.28-11.01,36.6-16.26,54.98c-1.01,3.54-1.96,3.78-5.31,2.35c-16.03-6.86-32.64-10.43-50.12-6.87
	c-14.61,2.98-23.41,12.55-28.64,25.91c-4.34,11.08-5.38,22.95-8.07,34.42c-0.89,3.81,1.57,3.51,4,3.51
	c21.33-0.02,42.66,0.08,63.98-0.09c4.19-0.03,5.36,0.59,4.31,5.2c-3.78,16.53-7.09,33.16-10.4,49.79c-0.67,3.35-1.95,4.51-5.55,4.47
	c-20.49-0.21-40.99,0.01-61.48-0.2c-3.8-0.04-5.1,1.23-5.83,4.74c-13.27,64.3-26.71,128.57-39.9,192.89
	c-0.92,4.47-2.48,5.75-7.04,5.69c-21.99-0.27-43.99-0.2-65.98-0.05c-3.91,0.03-5.45-0.16-4.43-5.02
	C15.33,323.8,28.57,259.67,41.9,195.55c1.21-5.82,1.27-5.84-4.82-5.81c-12.32,0.07-24.64,0.17-36.96,0.26c0-1,0-2,0-3
	c0.87-0.47,0.82-1.35,0.99-2.14c3.52-16.75,7.13-33.49,10.5-50.28c0.65-3.25,1.91-4.29,5.22-4.22c9.83,0.22,19.66,0.08,29.49,0.08
	c9.14,0,9.02-0.03,10.92-8.81c4.22-19.47,7.08-39.27,14.84-57.86c13.23-31.7,35.38-53.01,69.66-60.51
	c5.44-1.19,11.12-1.09,16.37-3.17C168.78,0.1,179.44,0.1,190.11,0.1z"/>
<path class="st0" d="M1876.92,399.9c-4.19-2.18-8.93-1.88-13.37-2.95c-19.09-4.59-35.64-12.92-46.13-30.44
	c-8.76-14.62-11.03-30.67-8.9-47.2c3.96-30.7,11.92-60.66,17.88-90.99c2.27-11.58,4.71-23.13,7.25-34.65c0.7-3.19-0.18-4.05-3.37-4
	c-11.16,0.16-22.33-0.05-33.48,0.13c-3.47,0.06-4.26-0.9-3.52-4.29c3.71-17.05,7.27-34.14,10.74-51.24
	c0.62-3.03,1.99-3.94,5.04-3.89c10.83,0.18,21.66-0.12,32.48,0.17c3.92,0.11,5.5-1.08,6.27-4.91c4.97-24.77,10.26-49.48,15.16-74.26
	c0.89-4.51,2.67-6.52,7.33-7.29c22.65-3.74,45.23-7.86,67.83-11.82c5.26-0.92,5.39-0.75,4.27,4.62
	c-6.15,29.44-12.23,58.9-18.52,88.32c-0.85,3.98-0.58,5.41,4.12,5.36c22.49-0.26,44.98-0.11,67.47-0.13c1.48,0,2.96-0.26,4.44-0.4
	c0,1,0,2,0,3c-0.87,0.47-0.82,1.35-0.99,2.14c-3.39,16.27-6.91,32.51-10.11,48.82c-0.83,4.2-2.21,5.94-6.98,5.88
	c-22.32-0.31-44.65-0.09-66.97-0.2c-3.17-0.02-4.54,0.7-5.23,4.15c-5.02,25.1-10.43,50.12-15.49,75.21
	c-2.69,13.33-6.32,26.54-5.29,40.41c1.09,14.6,8.69,23.59,23.03,25.76c13.73,2.08,26.34-1.81,38.31-8.3
	c1.8-0.97,3.28-2.72,5.93-2.76c-0.2,2.21-0.32,4.19-0.57,6.16c-1.88,14.68-3.93,29.34-5.63,44.04c-1.67,14.45-2.22,15.3-16.42,19.35
	c-0.32,0.09-0.66,0.12-0.97,0.23c-9.32,3.05-19.13,3.72-28.62,5.97C1894.91,399.9,1885.92,399.9,1876.92,399.9z"/>
<path class="st0" d="M494.07,0.1c-0.43,11.72-3.93,22.91-6.25,34.27c-10.05,49.19-20.45,98.3-30.67,147.45
	c-14.35,69-28.67,138.01-42.91,207.03c-0.55,2.65-1.13,4.06-4.29,4.04c-23.83-0.13-47.65-0.07-71.48-0.09
	c-0.65,0-1.31-0.16-2.24-0.28c3.71-18.01,7.37-35.89,11.08-53.77c14.59-70.31,29.2-140.62,43.82-210.93
	c8.02-38.57,16.1-77.13,24.09-115.71c0.67-3.22,1.67-4.89,5.62-5.19c22.74-1.7,45.46-3.83,68.18-5.82c0.82-0.07,1.68-0.05,2.06-1.01
	C492.07,0.1,493.07,0.1,494.07,0.1z"/>
<path class="st0" d="M1328.98,399.9c7.67-1.63,15.33-1.63,23,0C1344.31,399.9,1336.64,399.9,1328.98,399.9z"/>
<path class="st0" d="M946.19,392.83c-11.33,0-22.66-0.14-33.99,0.08c-3.77,0.07-4.22-0.87-3.47-4.47
	c10.03-48.17,19.92-96.37,29.74-144.59c2.04-10.01,2.68-20.14,0.5-30.24c-2.61-12.14-10.08-18.14-22.44-18.69
	c-13.26-0.59-24.3,4.68-34.39,12.56c-7.11,5.56-13.33,12.05-19.26,18.84c-1.47,1.68-2.37,3.51-2.82,5.71
	c-10.71,52.1-21.48,104.2-32.16,156.31c-0.65,3.17-1.6,4.65-5.38,4.62c-22.82-0.23-45.65-0.19-68.48-0.04
	c-3.79,0.03-4.38-1.01-3.64-4.56c17.64-84.44,35.2-168.9,52.69-253.38c0.71-3.44,2.05-4.79,5.78-4.96
	c18.63-0.84,37.25-1.94,55.86-3.17c3.62-0.24,4.68,0.61,4.17,4.27c-1.62,11.7-3.01,23.43-4.39,35.16c-0.19,1.59-1.66,4,0.75,4.68
	c2.2,0.62,4.71,0.9,6.65-1.75c7.26-9.86,15.99-18.3,25.98-25.37c23.11-16.35,48.43-23.96,76.8-18.9
	c23.58,4.21,38.06,18.29,44.42,41.2c0.57,2.06-0.54,5.28,3.04,6.05c3.72,0.8,5.24-1.81,7.17-4.15
	c18.59-22.6,41.58-38.23,70.79-43.36c15.3-2.69,30.64-2.04,45.17,4.04c22.25,9.3,31.52,27.84,34.73,50.4
	c3.02,21.26-2.13,41.68-6.38,62.19c-10.2,49.15-20.47,98.29-30.53,147.47c-0.71,3.45-2.09,4.16-5.26,4.14
	c-22.83-0.11-45.65-0.11-68.48,0c-3.36,0.02-4.52-0.26-3.68-4.29c10.03-48,19.8-96.06,29.68-144.1c1.59-7.72,2.08-15.49,1.71-23.34
	c-0.94-19.95-13.12-29.43-32.82-25.71c-14.1,2.66-24.03,11.98-34.85,20.39c-10.95,8.52-11.79,20.61-14.24,32.29
	c-9.87,46.84-19.57,93.71-29.22,140.59c-0.66,3.21-1.93,4.24-5.24,4.18C969.19,392.7,957.69,392.83,946.19,392.83z"/>
<path class="st0" d="M1675.25,392.83c-11.16,0-22.33-0.16-33.48,0.08c-4.15,0.09-5.41-0.63-4.45-5.19
	c10.17-48.63,20.16-97.3,30.08-145.99c1.7-8.34,2.12-16.79,0.67-25.3c-2.28-13.34-10.07-20.51-23.54-21.43
	c-10.61-0.73-20.49,1.43-29.68,6.83c-11.21,6.59-20.24,15.61-28.76,25.26c-2.29,2.59-2.29,5.85-2.92,8.87
	c-10.53,50.77-20.99,101.56-31.39,152.36c-0.65,3.19-1.63,4.65-5.4,4.61c-22.82-0.23-45.65-0.2-68.47-0.03
	c-3.89,0.03-4.34-1.2-3.62-4.62c16.84-80.35,33.6-160.72,50.36-241.09c0.95-4.56,1.89-9.12,2.69-13.7c0.41-2.34,1.49-3.24,3.96-3.36
	c19.29-1,38.58-2.09,57.85-3.32c3.16-0.2,4.12,0.55,3.68,3.76c-1.6,11.7-3.04,23.41-4.41,35.14c-0.21,1.76-1.72,4.36,0.74,5.2
	c2.38,0.81,4.87,0.58,6.97-2.13c16.06-20.76,36.55-35.15,62.05-42.04c15.54-4.2,31.3-4.7,46.96-1.21
	c25.96,5.8,41.74,23.44,45.88,50.3c2.75,17.89,0.69,35.45-3.01,52.99c-11.12,52.69-22.11,105.41-32.97,158.15
	c-0.93,4.49-2.37,6.22-7.29,6C1696.92,392.51,1686.08,392.83,1675.25,392.83z"/>
<path class="st0" d="M284.16,173.44c-8.29-5.78-15.32-10.71-22.37-15.61c-6.86-4.76-7.26-5.6-4.82-13.61
	c1.29-4.23,0.73-10.07,4.37-12.25c3.27-1.95,8.41-0.81,12.72-1.01c7.81-0.36,15.62-0.7,24.05-1.08c-1.98,5.14-3.56,9.85-5.6,14.35
	c-1.55,3.43-1.13,5.46,2.22,7.68c9.57,6.34,18.78,13.22,28.29,19.66c4.11,2.78,5.6,5.85,4.36,10.93
	c-2.99,12.23-0.95,13.42-15.9,13.74c-6.63,0.14-13.24,0.94-21.32,1.55c8.12,5.68,15.11,10.6,22.14,15.46
	c6.79,4.69,7.2,5.65,5.4,13.63c-0.22,0.97-0.45,1.94-0.66,2.92c-1.6,7.58-2.27,8.26-10.18,8.86c-8.23,0.62-16.48,1.05-26.13,1.65
	c7.66,5.38,14.22,10.05,20.84,14.63c8.02,5.55,9.88,15.51,4.33,23.52c-1.51,2.18-3.72,2.44-6.15,2.59c-8.97,0.56-17.92,1.26-28.12,2
	c6.99,4.94,13.13,9.28,19.28,13.62c2.04,1.44,4.09,2.86,6.13,4.3c2.06,1.45,3.38,3.46,2.95,5.94c-0.77,4.41-1.69,8.82-2.96,13.11
	c-0.96,3.25-3.99,3.62-6.93,3.79c-8.78,0.53-17.55,1.09-26.69,2.65c4.49,3.18,8.98,6.36,13.48,9.53c3.4,2.39,6.79,4.81,10.25,7.11
	c1.6,1.07,3.04,2.31,3.21,4.23c0.53,5.91-1.06,11.47-3.5,16.75c-0.82,1.78-2.93,1.95-4.81,2.12c-12.6,1.14-25.19,2.45-37.8,3.39
	c-3.12,0.23-4.24,1.46-4.78,4.29c-1,5.22-2.37,10.37-3.48,15.57c-0.46,2.16-1.15,3.49-3.84,3.44c-9.33-0.17-18.66-0.11-27.99-0.03
	c-2.37,0.02-3.19-0.37-2.48-3.07c3.37-12.86,6.49-25.79,9.76-38.68c0.89-3.49,3.15-5.08,6.89-5.26c9.07-0.45,18.12-1.23,28.54-1.97
	c-8.27-5.79-15.27-11.05-22.63-15.74c-4.89-3.12-6.58-6.59-5.19-12.47c2.88-12.17,2.59-12.17,15.19-12.8
	c6.78-0.34,13.54-0.95,21.95-1.55c-8.15-5.73-15.11-10.58-22.03-15.49c-2.66-1.89-6.32-3.24-6.25-7.18
	c0.1-5.49,1.08-10.93,3.67-15.84c1-1.9,3.31-1.94,5.35-2.08c9.08-0.63,18.15-1.32,28.53-2.08c-8.07-5.65-15.21-10.66-22.35-15.65
	c-6.64-4.64-6.86-5.19-5.13-13.24c0.35-1.63,0.82-3.23,1.04-4.88c0.64-4.75,3.24-6.78,8.08-6.97c8.79-0.35,17.56-1.15,27.72-1.86
	c-8.18-5.72-15.32-10.74-22.49-15.72c-6.45-4.47-6.77-5.19-5.2-12.78c2.49-12.02,2.5-11.96,14.83-12.58
	C268.85,174.62,275.74,174.03,284.16,173.44z"/>
<path class="st0" d="M308.31,89.93c-10.01,0.13-19.61-1.45-27.69-7.91c-12.22-9.77-13.47-23.13-11.13-37.14
	c4.35-26.05,19.8-39.71,46.26-41.98c6.35-0.54,12.64-0.73,18.87,0.53c18.08,3.65,30.24,21.08,28.14,40.16
	c-0.29,2.64-0.63,5.29-1.17,7.89c-5.2,24.99-17.57,35.91-48.79,38.44C311.31,90.04,309.81,89.93,308.31,89.93z"/>
</svg>
